<?xml version="1.0" encoding="utf-8"?>
<!-- Generator: Adobe Illustrator 22.0.0, SVG Export Plug-In . SVG Version: 6.00 Build 0)  -->
<svg version="1.1" id="Calque_1" xmlns="http://www.w3.org/2000/svg" xmlns:xlink="http://www.w3.org/1999/xlink" x="0px" y="0px"
	 viewBox="0 0 300 300" style="enable-background:new 0 0 300 300;" xml:space="preserve">
<g>
	<g>
		<path d="M167.9,265.1c-0.6,1.7-0.9,2.8-1.4,3.9c-3,6.5-8.2,10.1-15.1,10.6c-6.1,0.5-12.8-4.3-15.5-10.8c-0.9-2.3-1.7-3.8-4.7-4
			c-1.7-0.1-3.8-2.4-4.8-4.2c-6.8-12.6-10.4-26.4-10-40.3c0.7-21.5-8.4-38.1-23.5-51.3c-19-16.5-27-37.5-28.1-61.3
			c-2-40.7,17.9-77.1,66.9-84.8c15.4-2.4,30.6-2.1,45.7,1.4c34.2,7.7,54.8,30.6,59.4,66c2.5,18.8-0.2,37-8.4,54
			c-3.3,6.9-8.7,12.9-13.6,18.9c-6.9,8.5-14.6,16.4-21.2,25.1c-4.9,6.4-6.9,14.1-7.1,22.5c-0.4,16.7-2.4,33.2-9.9,48.6
			C174.9,263.1,172.9,266.1,167.9,265.1z M130.9,135.6c-5.9,13.1-16.2,18.3-27.1,14.2c-9.9-3.7-15.3-14.9-12.1-24.9
			c3.8-12,14.1-16.1,30.2-11.8c0.7-2.4,1.5-4.9,2.3-7.6c-4-0.6-7.7-0.6-10.9-1.7c-1.7-0.6-3.5-3.2-3.5-5c0-1.3,2.7-3.7,4.2-3.7
			c3.4,0,7.8,0.2,9.8,2.3c4,4,8.5,4.1,13.1,4.1c8.3,0.1,16.6-0.1,25-0.6c1.7-0.1,3.5-1.6,5-2.6c5.4-3.8,10.6-8,16.2-11.5
			c3.3-2.1,7.4-3.9,10.8,0.3c2.2,2.8,0.6,6.8-4.4,10.3c-2.7,1.9-5.7,3.4-8.8,4.5c-3.3,1.2-6.9,1.4-10.1,2.7
			c-2.2,0.9-4.7,2.6-5.7,4.6c-3,6-0.4,11,6.7,14c11.8-12.5,19.3-15.1,29.1-10.2c7.7,3.9,12.2,12.5,10.9,20.7
			c-1.5,9.3-8.5,16.8-17.5,17.1c-4.8,0.1-10.4-1.3-14.4-4c-3.9-2.6-6.1-7.6-9.1-11.6c-5.1,11.8-7.4,24.7-6.6,38.6
			c6.8,0,13.3-0.4,19.8,0.1c6.1,0.4,10.8-0.9,14.4-6.3c2.4-3.5,5.7-6.5,9-9.3c8.2-6.9,13.1-15.8,16.4-25.7c4.3-13,5.8-26.4,4.2-39.9
			c-3-26.6-15.8-46.3-41.6-56c-18.8-7.1-38.3-7.3-57.6-3.6c-27.1,5.2-45.4,21-51.9,48.2c-2.2,9.4-2.9,19.5-2.2,29.2
			c1.3,19.2,7,36.9,22.8,49.9c3.8,3.1,6.8,7.3,10.3,10.9c1,1,2.3,2.5,3.4,2.5c8.6,0.2,17.2,0.1,26.1,0.1
			C137.5,160.4,135.6,148.2,130.9,135.6z M125.2,228.7c2.7,8.8,5.2,16.7,7.6,24.6c0.8,2.6,2.5,3.4,5.3,3.4
			c7.8-0.2,15.7-0.1,23.5-0.1c7.3,0,7.3,0,9.1-7.9c-8.4,0-16.7,0-25,0c-3.5,0-6.7-0.5-6.6-4.8c0.1-4,3.4-4.3,6.6-4.3
			c9.3,0.1,18.6,0,28.9,0c1.1-10.4,2.3-20.5,3.4-31.2c-11.3,0-21.6,0-31.9,0c-3.4,0-6.9-0.1-7-4.4c-0.1-4.7,3.7-4.7,7.2-4.7
			c9.5,0,19,0.1,28.5,0c1.4,0,3.5-0.2,3.9-1.1c2.4-5,4.5-10.1,6.6-15.2c-23,0-45.7,0-68.3,0c2.3,6,5.2,11.5,6.5,17.4
			c1.4,6,1.3,12.4,1.8,18.9c2.2,0,4,0,5.8,0c9.7,0,19.3,0,29,0c3.1,0,5.4,1.3,5.4,4.5c0,3.2-2.2,4.6-5.3,4.7c-1.3,0-2.7,0-4,0
			C146.6,228.7,136.8,228.7,125.2,228.7z M158.9,173.4c0.1-16.1,2.5-31.6,9.7-44.9c-3.2-3.7-6.9-6.4-8.2-10
			c-1.3-3.7-0.3-8.2-0.3-12.4c-10.4,0-20.9,0-31.3,0c-1.3,3.8-2.4,7.2-3.5,10.6c12.7,16.8,16.3,36.2,16.6,56.7
			C147.7,173.4,153.1,173.4,158.9,173.4z M122.5,121.1c-2.9,3.7-5.4,7.2-8.4,10.3c-1.1,1.2-3.2,1.5-4.8,2.2c0.4-1.6,0.4-3.6,1.3-4.9
			c2.6-3.8,5.6-7.3,8.5-11c-8.6-4.3-16.7-2.4-21.2,4.5c-4.5,6.7-3.1,15.6,3.2,20.7c6.1,4.9,14.8,4.6,20.5-0.8
			C127.5,136.5,127.9,128.2,122.5,121.1z M176.9,126.7c4.3,2.1,8.8,4.2,12.2,5.9c1.8-1.9,2.9-3.1,4-4.2c0.7,1.8,2.4,3.8,2,5.3
			c-1.1,4.3-4.8,4.1-8.1,2.9c-3.6-1.3-7-3.1-10.8-4.8c1.1,9.2,7.5,14.9,15.7,14.7c7.8-0.2,14.3-6.3,15.1-14
			c0.8-8.3-4.5-15.3-12.8-17C186.6,114,179.4,118.6,176.9,126.7z M157.6,265.6c-4.5,0-8.6,0-13.1,0
			C149.1,271.8,153.8,271.7,157.6,265.6z M173.3,97.9c8.7-0.2,14.6-3.7,16.8-10C183.8,91.7,178.5,94.8,173.3,97.9z"/>
	</g>
</g>
</svg>
