<?xml version="1.0" standalone="no"?>
<!DOCTYPE svg PUBLIC "-//W3C//DTD SVG 20010904//EN"
 "http://www.w3.org/TR/2001/REC-SVG-20010904/DTD/svg10.dtd">
<svg version="1.0" xmlns="http://www.w3.org/2000/svg"
 width="700.000000pt" height="700.000000pt" viewBox="0 0 700.000000 700.000000"
 preserveAspectRatio="xMidYMid meet">
<metadata>
Created by potrace 1.11, written by Peter Selinger 2001-2013
</metadata>
<g transform="translate(0.000000,700.000000) scale(0.100000,-0.100000)"
fill="#000000" stroke="none">
<path d="M3265 6489 c-136 -14 -179 -20 -246 -34 -38 -8 -83 -17 -101 -20 -53
-9 -237 -65 -318 -97 -526 -207 -887 -620 -1025 -1172 -18 -75 -20 -83 -35
-166 -26 -144 -35 -478 -17 -655 8 -84 44 -276 71 -383 40 -157 133 -365 230
-512 98 -150 142 -199 415 -465 268 -261 423 -554 466 -880 4 -27 8 -131 10
-230 3 -220 12 -305 45 -448 39 -172 86 -302 161 -448 56 -108 88 -143 152
-160 56 -15 63 -22 102 -98 99 -196 265 -280 450 -227 128 37 238 145 275 272
12 41 13 42 66 46 43 4 61 11 86 34 62 58 175 335 222 546 45 202 57 298 71
558 14 273 26 355 71 471 37 97 122 222 255 374 124 141 271 312 317 370 32
38 67 81 80 95 45 49 190 246 223 305 69 120 148 320 188 480 17 70 24 105 45
229 11 64 20 198 20 306 -1 107 -12 298 -19 310 -1 3 -6 30 -9 60 -10 83 -54
265 -88 365 -212 622 -684 1007 -1395 1140 -81 15 -118 20 -243 34 -91 11
-428 11 -525 0z m435 -213 c285 -14 553 -83 805 -207 294 -144 499 -346 639
-626 86 -172 139 -360 172 -608 3 -22 7 -116 9 -210 6 -293 -38 -538 -145
-815 -79 -205 -178 -350 -337 -495 -115 -105 -165 -155 -199 -202 -57 -76 -98
-114 -153 -140 l-55 -27 -295 1 c-163 1 -301 2 -307 2 -11 1 -12 235 0 324 3
26 9 68 12 95 14 112 97 411 129 463 4 5 38 -36 77 -93 39 -57 85 -115 102
-131 87 -77 217 -121 357 -121 86 1 103 4 160 31 176 84 280 265 266 462 -11
167 -109 310 -262 385 -202 99 -367 54 -589 -158 -44 -42 -83 -76 -88 -76 -5
0 -33 16 -63 35 -93 59 -129 138 -106 231 26 102 90 149 265 194 173 44 257
83 363 167 106 84 118 185 27 243 -90 56 -139 35 -469 -206 -77 -56 -157 -112
-178 -124 -46 -27 -58 -28 -437 -34 -360 -6 -408 2 -499 82 -40 35 -92 52
-173 59 -74 7 -97 1 -136 -38 -33 -32 -36 -55 -14 -96 31 -57 93 -81 252 -97
35 -4 65 -8 66 -9 0 -1 -11 -41 -25 -88 -19 -62 -30 -85 -41 -84 -8 2 -42 8
-75 15 -87 18 -236 20 -306 4 -148 -35 -239 -119 -301 -279 -31 -80 -32 -234
-3 -310 21 -55 70 -136 107 -175 117 -126 327 -179 476 -121 131 52 202 121
309 300 l21 33 35 -113 c70 -226 95 -377 104 -621 l5 -156 -317 1 -317 2 -65
70 c-135 145 -230 242 -299 305 -193 178 -329 412 -399 690 -13 52 -27 111
-30 130 -3 19 -8 42 -10 50 -4 16 -10 65 -21 175 -10 95 -10 330 -1 437 47
533 276 952 653 1193 166 106 407 197 624 236 41 7 77 13 80 14 6 1 122 16
165 21 17 2 68 6 115 9 46 4 85 7 86 8 3 3 80 0 234 -7z m711 -1373 c-43 -83
-122 -141 -229 -168 -34 -9 -77 -15 -95 -13 -30 3 -26 6 63 58 52 30 102 59
111 65 9 5 34 20 55 33 22 12 53 31 69 42 44 27 48 24 26 -17z m-681 -383 c1
-3 2 -66 3 -140 2 -127 4 -138 29 -180 15 -25 58 -79 97 -120 39 -41 70 -79
71 -83 0 -4 -12 -31 -26 -59 -63 -124 -141 -374 -158 -508 -3 -25 -8 -56 -11
-70 -3 -14 -8 -59 -11 -100 -4 -41 -8 -86 -10 -100 -1 -14 -3 -66 -3 -115 l-1
-90 -200 -1 -200 0 -1 55 c-1 62 -3 92 -13 231 -4 52 -9 97 -11 100 -2 3 -6
29 -9 56 -4 28 -15 93 -26 145 -55 251 -141 461 -272 656 -26 40 -48 78 -48
85 0 20 72 232 81 238 4 3 167 5 363 5 196 0 356 -2 356 -5z m-1019 -241 c68
-22 68 -22 51 -45 -173 -225 -192 -252 -201 -294 -5 -24 -8 -46 -6 -48 1 -2
21 2 44 9 45 13 80 47 186 179 37 47 69 86 70 88 7 8 49 -64 66 -114 47 -134
22 -254 -74 -356 -224 -237 -623 -71 -620 258 0 79 26 150 80 218 96 123 237
160 404 105z m1849 17 c176 -53 280 -199 267 -374 -9 -120 -66 -217 -166 -282
-182 -116 -419 -48 -508 146 -13 29 -26 62 -28 74 -2 12 -7 30 -10 41 -4 10
-4 19 -2 19 2 0 51 -21 108 -46 205 -91 253 -99 302 -44 33 37 35 74 5 129
l-22 41 -48 -47 -47 -47 -141 69 c-156 77 -151 70 -103 153 37 65 76 105 134
137 86 46 174 57 259 31z m-240 -1569 c0 -10 -78 -195 -115 -273 -32 -68 -49
-93 -66 -97 -13 -4 -195 -7 -404 -7 -233 0 -395 -4 -418 -11 -20 -5 -44 -21
-53 -35 -19 -29 -20 -94 -2 -123 24 -39 74 -44 491 -44 l399 0 -7 -81 c-4 -45
-8 -83 -10 -86 -2 -3 -6 -46 -10 -95 -4 -50 -8 -92 -10 -95 -2 -3 -6 -39 -10
-80 -4 -41 -9 -86 -10 -100 -2 -14 -6 -54 -9 -90 -4 -36 -9 -73 -12 -82 -5
-17 -31 -18 -362 -18 -217 0 -372 -4 -395 -11 -47 -13 -71 -48 -69 -102 3 -54
31 -84 91 -93 25 -4 180 -7 343 -7 298 0 298 0 294 -21 -11 -61 -29 -109 -50
-133 l-24 -27 -343 -3 c-189 -2 -358 -1 -375 2 -35 6 -67 30 -78 60 -20 51
-176 562 -176 575 0 13 53 15 421 17 357 2 425 5 453 18 37 18 56 51 56 96 0
42 -15 66 -53 86 -28 14 -80 16 -455 17 -371 0 -423 2 -426 16 -3 8 -7 65 -11
125 -14 267 -37 355 -169 668 l-16 37 795 0 c437 0 795 -1 795 -3z m-658
-1938 c-4 -24 -82 -88 -110 -91 -15 -2 -42 1 -60 6 -35 10 -117 80 -109 93 3
4 67 8 144 7 112 -1 137 -4 135 -15z"/>
</g>
</svg>
